<svg xmlns="http://www.w3.org/2000/svg" width="64" height="64" viewBox="0 0 32 32" role="img" aria-label="Workbench"><title>Workbench</title><defs><linearGradient id="itsm-brand-workbench" x1="0.213" y1="0.09" x2="0.787" y2="0.91"><stop offset="0" stop-color="#57A8FF"/><stop offset="1" stop-color="#007AFF"/></linearGradient></defs><rect width="32" height="32" rx="7.2" fill="url(#itsm-brand-workbench)"/><g transform="translate(6.4 6.4) scale(0.8)" fill="none" stroke="#FFFFFF" stroke-width="2.25" stroke-linecap="round" stroke-linejoin="round"><polyline points="22 12 16 12 14 15 10 15 8 12 2 12"/><path d="M5.45 5.11 2 12v6a2 2 0 0 0 2 2h16a2 2 0 0 0 2-2v-6l-3.45-6.89A2 2 0 0 0 16.76 4H7.24a2 2 0 0 0-1.79 1.11z"/></g></svg>
